<svg xmlns="http://www.w3.org/2000/svg" width="800" height="200">
  <text x="10" y="20" fill="white" font-size="14">Optimización: gris=sin opt, naranja=con opt</text>
  <rect x="40" y="97" width="25" height="43" fill="#64748b"/><rect x="68" y="97" width="25" height="43" fill="#f97316"/><text x="50" y="155" font-size="8" fill="#ccc">t1</text><rect x="110" y="85" width="25" height="55" fill="#64748b"/><rect x="138" y="85" width="25" height="55" fill="#f97316"/><text x="120" y="155" font-size="8" fill="#ccc">t2</text><rect x="180" y="93" width="25" height="47" fill="#64748b"/><rect x="208" y="93" width="25" height="47" fill="#f97316"/><text x="190" y="155" font-size="8" fill="#ccc">t3</text><rect x="250" y="86" width="25" height="54" fill="#64748b"/><rect x="278" y="86" width="25" height="54" fill="#f97316"/><text x="260" y="155" font-size="8" fill="#ccc">t4</text><rect x="320" y="53" width="25" height="87" fill="#64748b"/><rect x="348" y="55" width="25" height="85" fill="#f97316"/><text x="330" y="155" font-size="8" fill="#ccc">t5</text><rect x="390" y="20" width="25" height="120" fill="#64748b"/><rect x="418" y="20" width="25" height="120" fill="#f97316"/><text x="400" y="155" font-size="8" fill="#ccc">t6</text><rect x="460" y="86" width="25" height="54" fill="#64748b"/><rect x="488" y="86" width="25" height="54" fill="#f97316"/><text x="470" y="155" font-size="8" fill="#ccc">t7</text><rect x="530" y="96" width="25" height="44" fill="#64748b"/><rect x="558" y="97" width="25" height="43" fill="#f97316"/><text x="540" y="155" font-size="8" fill="#ccc">t8</text><rect x="600" y="94" width="25" height="46" fill="#64748b"/><rect x="628" y="98" width="25" height="42" fill="#f97316"/><text x="610" y="155" font-size="8" fill="#ccc">t9</text><rect x="670" y="81" width="25" height="59" fill="#64748b"/><rect x="698" y="82" width="25" height="58" fill="#f97316"/><text x="680" y="155" font-size="8" fill="#ccc">10</text>
  <rect x="600" y="10" width="15" height="15" fill="#64748b"/><text x="620" y="22" fill="#ccc" font-size="11">Sin opt</text>
  <rect x="600" y="30" width="15" height="15" fill="#f97316"/><text x="620" y="42" fill="#ccc" font-size="11">Con opt</text>
</svg>